<svg xmlns="http://www.w3.org/2000/svg" id="Layer_1" data-name="Layer 1" viewBox="0 0 1000 943.41"><defs><style>.cls-1{fill:#00aeef}.cls-2{fill:#fff200}.cls-3{fill:#ed1c24}.cls-4{fill:#00a14b}.cls-5{fill:#908f8f}.cls-6{fill:#fff}</style></defs><title>Py</title><path d="M248.2,106.43a5.67,5.67,0,0,0-8,0l-6,6a5.67,5.67,0,1,0,8,8l6-6A5.67,5.67,0,0,0,248.2,106.43Z" class="cls-1"/><path d="M239.91,90.89a5.68,5.68,0,0,0-.48-8.45,5.78,5.78,0,0,0-7.66.54L195,119.72a5.77,5.77,0,0,1-7.54.62A5.68,5.68,0,0,1,186,113a5.54,5.54,0,0,1,.9-1.17l29-29a11.56,11.56,0,0,0,1-1.16,5.37,5.37,0,0,0-1-6.55,5.63,5.63,0,0,0-8,0l-42.11,42.11a5.63,5.63,0,1,1-8-8L176,90.88a5.63,5.63,0,1,0-8-8L152.61,98.36a5.63,5.63,0,0,0-8-8l-24.71,24.71a24.42,24.42,0,0,0-2,1.74,45.35,45.35,0,0,0,59.94,67.85h0a46.81,46.81,0,0,0,4.19-3.7l50-50a5.68,5.68,0,0,0-.48-8.45,5.77,5.77,0,0,0-7.65.54l-36.09,36.09a5.78,5.78,0,0,1-8.12.15,5.66,5.66,0,0,1,0-8ZM136.1,132.42a7.24,7.24,0,1,1-7.24,7.24A7.24,7.24,0,0,1,136.1,132.42Zm26,40.1a15.92,15.92,0,0,1-11.27,4.67H144.8a15.94,15.94,0,0,1-15.94-15.94l12.6-2.53a32.14,32.14,0,0,1,12.74,0l12.6,2.53A15.86,15.86,0,0,1,162.13,172.52Zm-2.57-25.65a7.24,7.24,0,1,1,7.24-7.24A7.24,7.24,0,0,1,159.56,146.87Z" class="cls-1"/><path d="M179.51,79.48a5.67,5.67,0,0,0,8,0l2.15-2.15a5.67,5.67,0,0,0,0-8h0a5.67,5.67,0,0,0-8,0l-2.15,2.15a5.67,5.67,0,0,0,0,8Z" class="cls-1"/><path d="M405.78,106.43a5.67,5.67,0,0,0-8,0l-6,6a5.67,5.67,0,0,0,8,8l6-6A5.67,5.67,0,0,0,405.78,106.43Z" class="cls-2"/><path d="M397.48,90.89a5.69,5.69,0,0,0-.47-8.45,5.78,5.78,0,0,0-7.66.54l-36.74,36.74a5.78,5.78,0,0,1-7.55.62,5.66,5.66,0,0,1-2.24-4.52,5.76,5.76,0,0,1,.76-2.84,5.54,5.54,0,0,1,.9-1.17l29-29a11.56,11.56,0,0,0,1-1.16,5.39,5.39,0,0,0-1-6.55,5.63,5.63,0,0,0-8,0l-42.11,42.11a5.63,5.63,0,0,1-8-8l18.15-18.42a5.63,5.63,0,1,0-8-8L310.18,98.36a5.63,5.63,0,0,0-8-8l-24.71,24.71q-1.07.87-2,1.74a45.36,45.36,0,0,0,60,67.85,46.81,46.81,0,0,0,4.19-3.7l50-50a5.69,5.69,0,0,0-.47-8.45,5.79,5.79,0,0,0-7.66.54l-36.09,36.09a5.78,5.78,0,0,1-8.12.15,5.66,5.66,0,0,1,0-8Zm-103.8,41.53a7.24,7.24,0,1,1-7.24,7.24A7.24,7.24,0,0,1,293.68,132.42Zm26,40.1a15.88,15.88,0,0,1-11.26,4.67h-6.07a15.94,15.94,0,0,1-15.93-15.94L299,158.72a32.19,32.19,0,0,1,12.75,0l12.59,2.53A15.86,15.86,0,0,1,319.7,172.52Zm-2.57-25.65a7.24,7.24,0,1,1,7.24-7.24A7.24,7.24,0,0,1,317.13,146.87Z" class="cls-2"/><path d="M337.08,79.48a5.67,5.67,0,0,0,8,0l2.15-2.15a5.67,5.67,0,0,0,0-8h0a5.67,5.67,0,0,0-8,0l-2.15,2.15a5.67,5.67,0,0,0,0,8Z" class="cls-2"/><path d="M571.12,107.84a5.67,5.67,0,0,0-8,0l-6,6a5.67,5.67,0,1,0,8,8l6-6A5.67,5.67,0,0,0,571.12,107.84Z" class="cls-3"/><path d="M562.82,92.3a5.67,5.67,0,0,0-.47-8.45,5.79,5.79,0,0,0-7.66.54L518,121.13a5.76,5.76,0,0,1-7.54.62,5.64,5.64,0,0,1-1.48-7.35,5.29,5.29,0,0,1,.9-1.17l29-29a10.55,10.55,0,0,0,1-1.16,5.38,5.38,0,0,0-1-6.55,5.64,5.64,0,0,0-8,0l-42.11,42.11a5.63,5.63,0,1,1-8-8l18.15-18.42a5.63,5.63,0,1,0-8-8L475.53,99.78a5.63,5.63,0,1,0-8-8l-24.71,24.71a24.48,24.48,0,0,0-2,1.75A45.36,45.36,0,0,0,505,182.42l49.94-50a5.66,5.66,0,0,0-.47-8.44,5.76,5.76,0,0,0-7.65.53l-36.09,36.09a5.78,5.78,0,0,1-8.12.16,5.67,5.67,0,0,1,0-8ZM459,133.83a7.24,7.24,0,1,1-7.24,7.24A7.24,7.24,0,0,1,459,133.83Zm26,40.1a15.88,15.88,0,0,1-11.27,4.67h-6.06a15.94,15.94,0,0,1-15.94-15.94l12.6-2.53a32.52,32.52,0,0,1,12.74,0l12.6,2.53A15.88,15.88,0,0,1,485,173.93Zm-2.57-25.65a7.24,7.24,0,1,1,7.24-7.24A7.24,7.24,0,0,1,482.48,148.28Z" class="cls-3"/><path d="M502.43,80.9a5.67,5.67,0,0,0,8,0l2.15-2.15a5.67,5.67,0,0,0,0-8h0a5.67,5.67,0,0,0-8,0l-2.15,2.15a5.67,5.67,0,0,0,0,8Z" class="cls-3"/><path d="M736.46,107.84a5.67,5.67,0,0,0-8,0l-6,6a5.67,5.67,0,1,0,8,8l6-6A5.67,5.67,0,0,0,736.46,107.84Z" class="cls-4"/><path d="M728.17,92.3a5.68,5.68,0,0,0-.48-8.45,5.77,5.77,0,0,0-7.65.54l-36.75,36.74a5.76,5.76,0,0,1-7.54.62,5.67,5.67,0,0,1-1.48-7.35,5.3,5.3,0,0,1,.9-1.17l29-29a8.85,8.85,0,0,0,1-1.16,5.37,5.37,0,0,0-1-6.55,5.65,5.65,0,0,0-8,0l-42.11,42.11a5.63,5.63,0,0,1-8-8l18.15-18.42a5.63,5.63,0,1,0-8-8L640.87,99.78a5.63,5.63,0,1,0-8-8L608.2,116.53a24.28,24.28,0,0,0-2,1.75,45.36,45.36,0,0,0,60,67.85,46.93,46.93,0,0,0,4.19-3.71l50-50a5.68,5.68,0,0,0-.47-8.44,5.77,5.77,0,0,0-7.66.53l-36.09,36.09a5.78,5.78,0,0,1-8.12.16,5.67,5.67,0,0,1,0-8Zm-103.8,41.53a7.24,7.24,0,1,1-7.24,7.24A7.24,7.24,0,0,1,624.37,133.83Zm26,40.1a15.86,15.86,0,0,1-11.27,4.67h-6.06a15.94,15.94,0,0,1-15.93-15.94l12.59-2.53a32.57,32.57,0,0,1,12.75,0l12.59,2.53A15.88,15.88,0,0,1,650.39,173.93Zm-2.57-25.65a7.24,7.24,0,1,1,7.24-7.24A7.24,7.24,0,0,1,647.82,148.28Z" class="cls-4"/><path d="M667.77,80.9a5.67,5.67,0,0,0,8,0l2.15-2.15a5.67,5.67,0,0,0,0-8h0a5.67,5.67,0,0,0-8,0l-2.15,2.15a5.67,5.67,0,0,0,0,8Z" class="cls-4"/><path d="M907,107.84a5.67,5.67,0,0,0-8,0l-6,6a5.67,5.67,0,1,0,8,8l6-6A5.67,5.67,0,0,0,907,107.84Z" class="cls-5"/><path d="M898.74,92.3a5.69,5.69,0,0,0-.47-8.45,5.79,5.79,0,0,0-7.66.54l-36.74,36.74a5.77,5.77,0,0,1-7.55.62,5.67,5.67,0,0,1-1.48-7.35,5.3,5.3,0,0,1,.9-1.17l29-29a10.54,10.54,0,0,0,1-1.16,5.39,5.39,0,0,0-1-6.55,5.65,5.65,0,0,0-8,0l-42.11,42.11a5.63,5.63,0,0,1-8-8l18.15-18.42a5.63,5.63,0,1,0-8-8L811.44,99.78a5.63,5.63,0,1,0-8-8l-24.71,24.71a26.13,26.13,0,0,0-2,1.75A45.35,45.35,0,1,0,841,182.42l49.95-50a5.68,5.68,0,0,0-.47-8.44,5.78,5.78,0,0,0-7.66.53l-36.09,36.09a5.78,5.78,0,0,1-8.12.16,5.67,5.67,0,0,1,0-8Zm-103.8,41.53a7.24,7.24,0,1,1-7.24,7.24A7.24,7.24,0,0,1,794.94,133.83Zm26,40.1a15.84,15.84,0,0,1-11.26,4.67h-6.07a15.94,15.94,0,0,1-15.93-15.94l12.59-2.53a32.57,32.57,0,0,1,12.75,0l12.59,2.53A15.88,15.88,0,0,1,821,173.93Zm-2.57-25.65a7.24,7.24,0,1,1,7.24-7.24A7.24,7.24,0,0,1,818.39,148.28Z" class="cls-5"/><path d="M838.34,80.9a5.67,5.67,0,0,0,8,0l2.15-2.15a5.67,5.67,0,0,0,0-8h0a5.67,5.67,0,0,0-8,0l-2.15,2.15a5.67,5.67,0,0,0,0,8Z" class="cls-5"/><rect width="137.45" height="137.45" x="93.07" y="236.58" class="cls-1" rx="28.78" ry="28.78"/><rect width="102.93" height="102.93" x="110.66" y="253.84" class="cls-6" rx="20.84" ry="20.84"/><path d="M203.15,292.43a3.38,3.38,0,0,0-4.78,0L194.81,296a3.38,3.38,0,0,0,4.78,4.78l3.57-3.57A3.38,3.38,0,0,0,203.15,292.43Z" class="cls-1"/><path d="M193.27,302.07a3.44,3.44,0,0,0-4.56.32l-21.49,21.49a3.45,3.45,0,0,1-4.84.09,3.37,3.37,0,0,1,0-4.79l35.84-36a3.38,3.38,0,0,0-.28-5,3.44,3.44,0,0,0-4.56.32L171.5,300.35a3.44,3.44,0,0,1-4.49.37,3.37,3.37,0,0,1-.88-4.38,3.33,3.33,0,0,1,.53-.7L183.9,278.4a6.63,6.63,0,0,0,.63-.69,3.21,3.21,0,0,0-.61-3.9,3.35,3.35,0,0,0-4.74,0L154.1,298.88a3.35,3.35,0,0,1-4.74-4.74l10.81-11a3.35,3.35,0,1,0-4.74-4.74l-9.2,9.2a3.35,3.35,0,1,0-4.74-4.74l-14.71,14.71h0a14.87,14.87,0,0,0-1.16,1A27,27,0,0,0,161.32,339h0a27,27,0,0,0,2.5-2.21l29.74-29.74A3.38,3.38,0,0,0,193.27,302.07Z" class="cls-1"/><path d="M162.26,276.39a3.38,3.38,0,0,0,4.78,0l1.28-1.28a3.38,3.38,0,0,0,0-4.78h0a3.38,3.38,0,0,0-4.78,0l-1.28,1.28a3.38,3.38,0,0,0,0,4.78Z" class="cls-1"/><path d="M145.2,334.56h-3.61a9.49,9.49,0,0,1-9.49-9.49h0l7.5-1.51a19.26,19.26,0,0,1,7.59,0l7.5,1.51h0A9.49,9.49,0,0,1,145.2,334.56Z" class="cls-6"/><circle cx="136.41" cy="312.22" r="4.31" class="cls-6"/><circle cx="150.38" cy="312.2" r="4.31" class="cls-6"/><rect width="137.45" height="137.45" x="261.54" y="236.58" class="cls-2" rx="28.78" ry="28.78"/><rect width="102.93" height="102.93" x="279.13" y="253.84" class="cls-6" rx="20.84" ry="20.84"/><path d="M371.62,292.43a3.38,3.38,0,0,0-4.78,0L363.27,296a3.38,3.38,0,0,0,4.78,4.78l3.57-3.57A3.38,3.38,0,0,0,371.62,292.43Z" class="cls-2"/><path d="M361.74,302.07a3.44,3.44,0,0,0-4.56.32l-21.49,21.49a3.45,3.45,0,0,1-4.84.09,3.37,3.37,0,0,1,0-4.79l35.84-36a3.38,3.38,0,0,0-.28-5,3.44,3.44,0,0,0-4.56.32L340,300.35a3.44,3.44,0,0,1-4.49.37,3.37,3.37,0,0,1-.88-4.38,3.33,3.33,0,0,1,.53-.7l17.24-17.24a6.63,6.63,0,0,0,.63-.69,3.21,3.21,0,0,0-.61-3.9,3.35,3.35,0,0,0-4.74,0l-25.07,25.07a3.35,3.35,0,0,1-4.74-4.74l10.81-11a3.35,3.35,0,1,0-4.74-4.74l-9.2,9.2A3.35,3.35,0,1,0,310,282.9l-14.71,14.71h0a14.87,14.87,0,0,0-1.16,1A27,27,0,0,0,329.78,339h0a27,27,0,0,0,2.5-2.21L362,307.1A3.38,3.38,0,0,0,361.74,302.07Z" class="cls-2"/><path d="M330.72,276.39a3.38,3.38,0,0,0,4.78,0l1.28-1.28a3.38,3.38,0,0,0,0-4.78h0a3.38,3.38,0,0,0-4.78,0l-1.28,1.28a3.38,3.38,0,0,0,0,4.78Z" class="cls-2"/><path d="M313.67,334.56h-3.61a9.49,9.49,0,0,1-9.49-9.49h0l7.5-1.51a19.26,19.26,0,0,1,7.59,0l7.5,1.51h0A9.49,9.49,0,0,1,313.67,334.56Z" class="cls-6"/><circle cx="304.88" cy="312.22" r="4.31" class="cls-6"/><circle cx="318.84" cy="312.2" r="4.31" class="cls-6"/><rect width="137.45" height="137.45" x="427.1" y="236.58" class="cls-3" rx="28.78" ry="28.78"/><rect width="102.93" height="102.93" x="444.69" y="253.84" class="cls-6" rx="20.84" ry="20.84"/><path d="M537.18,292.43a3.38,3.38,0,0,0-4.78,0L528.83,296a3.38,3.38,0,1,0,4.78,4.78l3.57-3.57A3.38,3.38,0,0,0,537.18,292.43Z" class="cls-3"/><path d="M527.3,302.07a3.44,3.44,0,0,0-4.56.32l-21.49,21.49a3.45,3.45,0,0,1-4.84.09,3.37,3.37,0,0,1,0-4.79l35.84-36a3.38,3.38,0,0,0-.28-5,3.44,3.44,0,0,0-4.56.32l-21.87,21.87a3.44,3.44,0,0,1-4.49.37,3.37,3.37,0,0,1-.88-4.38,3.33,3.33,0,0,1,.53-.7l17.24-17.24a6.63,6.63,0,0,0,.63-.69,3.21,3.21,0,0,0-.61-3.9,3.35,3.35,0,0,0-4.74,0l-25.07,25.07a3.35,3.35,0,0,1-4.74-4.74l10.81-11a3.35,3.35,0,1,0-4.74-4.74l-9.2,9.2a3.35,3.35,0,1,0-4.74-4.74l-14.71,14.71h0a14.87,14.87,0,0,0-1.16,1A27,27,0,0,0,495.34,339h0a27,27,0,0,0,2.5-2.21l29.74-29.74A3.38,3.38,0,0,0,527.3,302.07Z" class="cls-3"/><path d="M496.28,276.39a3.38,3.38,0,0,0,4.78,0l1.28-1.28a3.38,3.38,0,0,0,0-4.78h0a3.38,3.38,0,0,0-4.78,0l-1.28,1.28a3.38,3.38,0,0,0,0,4.78Z" class="cls-3"/><path d="M479.23,334.56h-3.61a9.49,9.49,0,0,1-9.49-9.49h0l7.5-1.51a19.26,19.26,0,0,1,7.59,0l7.5,1.51h0A9.49,9.49,0,0,1,479.23,334.56Z" class="cls-6"/><circle cx="470.44" cy="312.22" r="4.31" class="cls-6"/><circle cx="484.4" cy="312.2" r="4.31" class="cls-6"/><rect width="137.45" height="137.45" x="592.67" y="236.58" class="cls-4" rx="28.78" ry="28.78"/><rect width="102.93" height="102.93" x="610.26" y="253.84" class="cls-6" rx="20.84" ry="20.84"/><path d="M702.75,292.43a3.38,3.38,0,0,0-4.78,0L694.41,296a3.38,3.38,0,0,0,4.78,4.78l3.57-3.57A3.38,3.38,0,0,0,702.75,292.43Z" class="cls-4"/><path d="M692.87,302.07a3.44,3.44,0,0,0-4.56.32l-21.49,21.49A3.45,3.45,0,0,1,662,324a3.37,3.37,0,0,1,0-4.79l35.84-36a3.38,3.38,0,0,0-.28-5,3.44,3.44,0,0,0-4.56.32L671.1,300.35a3.44,3.44,0,0,1-4.49.37,3.37,3.37,0,0,1-.88-4.38,3.33,3.33,0,0,1,.53-.7L683.5,278.4a6.63,6.63,0,0,0,.63-.69,3.21,3.21,0,0,0-.61-3.9,3.35,3.35,0,0,0-4.74,0L653.7,298.88a3.35,3.35,0,0,1-4.74-4.74l10.81-11a3.35,3.35,0,1,0-4.74-4.74l-9.2,9.2a3.35,3.35,0,1,0-4.74-4.74l-14.71,14.71h0a14.87,14.87,0,0,0-1.16,1A27,27,0,0,0,660.92,339h0a27,27,0,0,0,2.5-2.21l29.74-29.74A3.38,3.38,0,0,0,692.87,302.07Z" class="cls-4"/><path d="M661.86,276.39a3.38,3.38,0,0,0,4.78,0l1.28-1.28a3.38,3.38,0,0,0,0-4.78h0a3.38,3.38,0,0,0-4.78,0l-1.28,1.28a3.38,3.38,0,0,0,0,4.78Z" class="cls-4"/><path d="M644.8,334.56h-3.61a9.49,9.49,0,0,1-9.49-9.49h0l7.5-1.51a19.26,19.26,0,0,1,7.59,0l7.5,1.51h0A9.49,9.49,0,0,1,644.8,334.56Z" class="cls-6"/><circle cx="636.01" cy="312.22" r="4.31" class="cls-6"/><circle cx="649.98" cy="312.2" r="4.31" class="cls-6"/><rect width="137.45" height="137.45" x="764.2" y="236.58" class="cls-5" rx="28.78" ry="28.78"/><rect width="102.93" height="102.93" x="781.79" y="253.84" class="cls-6" rx="20.84" ry="20.84"/><path d="M874.28,292.43a3.38,3.38,0,0,0-4.78,0L865.93,296a3.38,3.38,0,0,0,4.78,4.78l3.57-3.57A3.38,3.38,0,0,0,874.28,292.43Z" class="cls-5"/><path d="M864.4,302.07a3.44,3.44,0,0,0-4.56.32l-21.49,21.49a3.45,3.45,0,0,1-4.84.09,3.37,3.37,0,0,1,0-4.79l35.84-36a3.38,3.38,0,0,0-.28-5,3.44,3.44,0,0,0-4.56.32l-21.87,21.87a3.44,3.44,0,0,1-4.49.37,3.37,3.37,0,0,1-.88-4.38,3.33,3.33,0,0,1,.53-.7L855,278.4a6.63,6.63,0,0,0,.63-.69,3.21,3.21,0,0,0-.61-3.9,3.35,3.35,0,0,0-4.74,0l-25.07,25.07a3.35,3.35,0,0,1-4.74-4.74l10.81-11a3.35,3.35,0,1,0-4.74-4.74l-9.2,9.2a3.35,3.35,0,1,0-4.74-4.74l-14.71,14.71h0a14.87,14.87,0,0,0-1.16,1A27,27,0,0,0,832.45,339h0a27,27,0,0,0,2.5-2.21l29.74-29.74A3.38,3.38,0,0,0,864.4,302.07Z" class="cls-5"/><path d="M833.38,276.39a3.38,3.38,0,0,0,4.78,0l1.28-1.28a3.38,3.38,0,0,0,0-4.78h0a3.38,3.38,0,0,0-4.78,0l-1.28,1.28a3.38,3.38,0,0,0,0,4.78Z" class="cls-5"/><path d="M816.33,334.56h-3.61a9.49,9.49,0,0,1-9.49-9.49h0l7.5-1.51a19.26,19.26,0,0,1,7.59,0l7.5,1.51h0A9.49,9.49,0,0,1,816.33,334.56Z" class="cls-6"/><circle cx="807.54" cy="312.22" r="4.31" class="cls-6"/><circle cx="821.5" cy="312.2" r="4.31" class="cls-6"/><path d="M232.16,539.93a6,6,0,0,0-8.52,0l-6.37,6.37a6,6,0,0,0,8.52,8.52l6.37-6.37A6,6,0,0,0,232.16,539.93Z" class="cls-1"/><path d="M223.34,523.43a6,6,0,0,0-.5-9,6.14,6.14,0,0,0-8.14.57l-39,39a6.15,6.15,0,0,1-8,.66,6,6,0,0,1-1.57-7.82,5.9,5.9,0,0,1,1-1.24L197.8,514.9a11.85,11.85,0,0,0,1.12-1.23,5.72,5.72,0,0,0-1.09-7,6,6,0,0,0-8.46,0l-44.73,44.73a6,6,0,0,1-8.45-8.45l19.28-19.57a6,6,0,0,0-4.23-10.21A5.93,5.93,0,0,0,147,515l-16.41,16.4a6,6,0,1,0-8.45-8.45L95.91,549.17h0A27.3,27.3,0,0,0,93.83,551a48.18,48.18,0,0,0,63.68,72.08h0a49.77,49.77,0,0,0,4.45-3.94L215,566.1a6,6,0,0,0-.51-9,6.13,6.13,0,0,0-8.13.57L168.06,596a6.16,6.16,0,0,1-8.63.16,6,6,0,0,1,0-8.54ZM113.08,567.55a7.69,7.69,0,1,1-7.69,7.69A7.69,7.69,0,0,1,113.08,567.55Zm27.64,42.59a16.89,16.89,0,0,1-12,5h-6.44a16.93,16.93,0,0,1-16.92-16.93l13.38-2.68a34.24,34.24,0,0,1,13.53,0l13.38,2.68A16.89,16.89,0,0,1,140.72,610.14ZM138,582.89a7.69,7.69,0,1,1,7.69-7.69A7.69,7.69,0,0,1,138,582.89Z" class="cls-1"/><path d="M159.19,511.32a6,6,0,0,0,8.52,0L170,509a6,6,0,0,0,0-8.52h0a6,6,0,0,0-8.52,0l-2.28,2.28a6,6,0,0,0,0,8.52Z" class="cls-1"/><path d="M258.37,581.3v16.89h-9.21V562a6.82,6.82,0,0,1,7-6.72h4.61a13.54,13.54,0,0,1,10.11,4,12.55,12.55,0,0,1,3.84,9,12.7,12.7,0,0,1-3.84,9.08,13.49,13.49,0,0,1-10.11,3.9Zm0-17.21v8.44h2.43c6.4.51,6.4-9,0-8.44Z" class="cls-1"/><path d="M283.38,601c0,3.58,2,5.63,4.86,5.63s4.41-1.92,4.41-5.82v-3.13a10,10,0,0,1-4.67,1.09c-7,0-11.58-4.73-11.58-12.73V570.61h8.19V586c0,3.39,1.34,5.12,4,5.12s4-2,4-5.12V570.61h8.19v30.19c0,8.44-5.18,13.43-12.6,13.43a13,13,0,0,1-9.08-3.65,12.49,12.49,0,0,1-4-9.59Z" class="cls-1"/><path d="M304.36,598.18V560.12a4.61,4.61,0,0,1,4.67-4.8h14.58v6.4H310.94v11.07h11.51v6.4H310.94v19Z"/><path d="M341.45,570.93h6.14v14.71c0,4.29-1.15,7.55-3.45,9.66a12.17,12.17,0,0,1-16.38.06c-2.24-2.11-3.39-5.37-3.39-9.72V570.93h6.14v14.71c0,4.61,2.11,7,5.44,7s5.5-2.43,5.5-7Z"/><path d="M356.55,598.18h-6.14V583.47c0-4.35,1.15-7.55,3.39-9.66a12.08,12.08,0,0,1,16.38,0c2.3,2.11,3.45,5.37,3.45,9.66v14.71h-6.14V583.47c0-4.54-2.17-7-5.5-7s-5.44,2.37-5.44,7Z"/><path d="M394.86,570.93v5.88h-3.13c-6.08,0-9.59,2.88-9.59,7.74s3.52,7.74,9.59,7.74h3.13v5.88h-3.13c-5,0-8.89-1.28-11.64-3.84a12.94,12.94,0,0,1-4.09-9.79,12.71,12.71,0,0,1,4.09-9.72c2.75-2.62,6.65-3.9,11.64-3.9Z"/><path d="M418.4,574.32c2.62,2.49,3.9,5.18,3.9,8.19,0,2.56-1.79,4.67-5.44,4.67H401.32a8,8,0,0,0,13.43,3.07l.58-.83h6.59a10,10,0,0,1-1.73,3.2,16.64,16.64,0,0,1-2.43,2.75,14.5,14.5,0,0,1-9,3.13,13.76,13.76,0,0,1-13.94-13.94,14,14,0,0,1,14-13.94A13.23,13.23,0,0,1,418.4,574.32Zm-2.17,7.36c-.51-2.75-3.58-5.25-7.36-5.25a7.38,7.38,0,0,0-7.48,5.25Z"/><path d="M430.49,555.32v17.78a6.63,6.63,0,0,1,.9-.64,11.53,11.53,0,0,1,2.69-1.15,13.67,13.67,0,0,1,4.29-.7,13.94,13.94,0,1,1,0,27.89,14.26,14.26,0,0,1-9.85-3.77c-2.75-2.49-4.16-5.95-4.16-10.36v-29Zm7.87,21.17a8.06,8.06,0,1,0,7.87,8.06A7.79,7.79,0,0,0,438.35,576.5Z"/><path d="M454.92,598.18V555.32h6.14v42.86Z"/><path d="M487.16,574.32c2.62,2.49,3.9,5.18,3.9,8.19,0,2.56-1.79,4.67-5.44,4.67H470.08a8,8,0,0,0,13.43,3.07l.58-.83h6.59a10.06,10.06,0,0,1-1.73,3.2,16.64,16.64,0,0,1-2.43,2.75,14.5,14.5,0,0,1-9,3.13,13.76,13.76,0,0,1-13.94-13.94,14,14,0,0,1,14-13.94A13.23,13.23,0,0,1,487.16,574.32ZM485,581.68c-.51-2.75-3.58-5.25-7.36-5.25a7.38,7.38,0,0,0-7.48,5.25Z"/><path d="M235.84,690.41a6,6,0,0,0-8.52,0l-6.37,6.37a6,6,0,0,0,8.52,8.52l6.37-6.37A6,6,0,0,0,235.84,690.41Z" class="cls-2"/><path d="M227,673.91a6,6,0,0,0-.5-9,6.13,6.13,0,0,0-8.13.58l-39,39a6.12,6.12,0,0,1-8,.66,6,6,0,0,1-1.57-7.82,5.76,5.76,0,0,1,1-1.24l30.76-30.76a11,11,0,0,0,1.11-1.22,5.72,5.72,0,0,0-1.09-7,6,6,0,0,0-8.45,0l-44.74,44.74a6,6,0,0,1-8.45-8.45l19.28-19.57a6,6,0,1,0-8.45-8.45l-16.41,16.4a6,6,0,1,0-8.45-8.45L99.59,699.64a26.29,26.29,0,0,0-2.07,1.85,48.18,48.18,0,1,0,68.14,68.14l53.06-53.06a6,6,0,0,0-.5-9,6.13,6.13,0,0,0-8.13.58l-38.33,38.33a6.16,6.16,0,0,1-8.63.16,6,6,0,0,1,0-8.54ZM116.77,718a7.69,7.69,0,1,1-7.69,7.69A7.69,7.69,0,0,1,116.77,718Zm27.64,42.6a16.84,16.84,0,0,1-12,5H126a16.93,16.93,0,0,1-16.93-16.93L122.45,746A34.47,34.47,0,0,1,136,746l13.38,2.69A16.84,16.84,0,0,1,144.41,760.62Zm-2.73-27.25a7.69,7.69,0,1,1,7.69-7.69A7.69,7.69,0,0,1,141.68,733.37Z" class="cls-2"/><path d="M162.87,661.79a6,6,0,0,0,8.52,0l2.28-2.28a6,6,0,0,0,0-8.52h0a6,6,0,0,0-8.52,0l-2.28,2.28a6,6,0,0,0,0,8.52Z" class="cls-2"/><path d="M262.06,731.77v16.89h-9.21V712.52a6.82,6.82,0,0,1,7-6.72h4.61a13.54,13.54,0,0,1,10.11,4,12.55,12.55,0,0,1,3.84,9,12.7,12.7,0,0,1-3.84,9.08,13.49,13.49,0,0,1-10.11,3.9Zm0-17.21V723h2.43c6.4.51,6.4-9,0-8.44Z" class="cls-2"/><path d="M287.06,751.47c0,3.58,2,5.63,4.86,5.63s4.41-1.92,4.41-5.82v-3.13a10,10,0,0,1-4.67,1.09c-7,0-11.58-4.73-11.58-12.73V721.09h8.19V736.5c0,3.39,1.34,5.12,4,5.12s4-2,4-5.12V721.09h8.19v30.19c0,8.44-5.18,13.43-12.6,13.43a13,13,0,0,1-9.08-3.65,12.49,12.49,0,0,1-4-9.59Z" class="cls-2"/><path d="M308,748.66V710.6a4.61,4.61,0,0,1,4.67-4.8H327.3v6.4H314.63v11.07h11.51v6.4H314.63v19Z"/><path d="M345.14,721.41h6.14v14.71c0,4.29-1.15,7.55-3.45,9.66a12.17,12.17,0,0,1-16.38.06c-2.24-2.11-3.39-5.37-3.39-9.72V721.41h6.14v14.71c0,4.61,2.11,7,5.44,7s5.5-2.43,5.5-7Z"/><path d="M360.23,748.66h-6.14V733.95c0-4.35,1.15-7.55,3.39-9.66a12.08,12.08,0,0,1,16.38,0c2.3,2.11,3.45,5.37,3.45,9.66v14.71h-6.14V733.95c0-4.54-2.17-7-5.5-7s-5.44,2.37-5.44,7Z"/><path d="M398.55,721.41v5.88h-3.13c-6.08,0-9.59,2.88-9.59,7.74s3.52,7.74,9.59,7.74h3.13v5.88h-3.13c-5,0-8.89-1.28-11.64-3.84a12.94,12.94,0,0,1-4.09-9.79,12.71,12.71,0,0,1,4.09-9.72c2.75-2.62,6.65-3.9,11.64-3.9Z"/><path d="M422.08,724.8c2.62,2.49,3.9,5.18,3.9,8.19,0,2.56-1.79,4.67-5.44,4.67H405a8,8,0,0,0,13.43,3.07l.58-.83h6.59a10,10,0,0,1-1.73,3.2,16.64,16.64,0,0,1-2.43,2.75,14.5,14.5,0,0,1-9,3.13A13.76,13.76,0,0,1,398.54,735a14,14,0,0,1,14-13.94A13.23,13.23,0,0,1,422.08,724.8Zm-2.17,7.36c-.51-2.75-3.58-5.25-7.36-5.25a7.38,7.38,0,0,0-7.48,5.25Z"/><path d="M434.17,705.8v17.78a6.63,6.63,0,0,1,.9-.64,11.53,11.53,0,0,1,2.69-1.15,13.67,13.67,0,0,1,4.29-.7A13.94,13.94,0,1,1,442,749a14.26,14.26,0,0,1-9.85-3.77c-2.75-2.49-4.16-5.95-4.16-10.36v-29ZM442,727a8.06,8.06,0,1,0,7.87,8.06A7.79,7.79,0,0,0,442,727Z"/><path d="M458.6,748.66V705.8h6.14v42.86Z"/><path d="M490.84,724.8c2.62,2.49,3.9,5.18,3.9,8.19,0,2.56-1.79,4.67-5.44,4.67H473.76a8,8,0,0,0,13.43,3.07l.58-.83h6.59a10.06,10.06,0,0,1-1.73,3.2,16.64,16.64,0,0,1-2.43,2.75,14.5,14.5,0,0,1-9,3.13A13.76,13.76,0,0,1,467.3,735a14,14,0,0,1,14-13.94A13.23,13.23,0,0,1,490.84,724.8Zm-2.17,7.36c-.51-2.75-3.58-5.25-7.36-5.25a7.38,7.38,0,0,0-7.48,5.25Z"/><path d="M414.07,850.08a6,6,0,0,0-8.52,0l-6.37,6.37A6,6,0,0,0,407.7,865l6.37-6.37A6,6,0,0,0,414.07,850.08Z" class="cls-3"/><path d="M405.25,833.57a6,6,0,0,0-.5-9,6.13,6.13,0,0,0-8.13.58l-39,39a6.12,6.12,0,0,1-8,.66A6,6,0,0,1,348,857a5.76,5.76,0,0,1,1-1.24L379.72,825a11,11,0,0,0,1.11-1.22,5.72,5.72,0,0,0-1.09-7,6,6,0,0,0-8.45,0l-44.74,44.74a6,6,0,0,1-8.45-8.45l19.28-19.57a6,6,0,1,0-8.45-8.45l-16.41,16.4a6,6,0,1,0-8.45-8.45l-26.25,26.25a26.3,26.3,0,0,0-2.07,1.85,48.18,48.18,0,1,0,68.14,68.14l53.06-53.06a6,6,0,0,0-.5-9,6.13,6.13,0,0,0-8.13.58L350,906.18a6.16,6.16,0,0,1-8.63.16,6,6,0,0,1,0-8.54ZM295,877.69a7.69,7.69,0,1,1-7.69,7.69A7.69,7.69,0,0,1,295,877.69Zm27.64,42.6a16.84,16.84,0,0,1-12,5h-6.43a16.93,16.93,0,0,1-16.93-16.93l13.38-2.69a34.47,34.47,0,0,1,13.54,0l13.38,2.69A16.84,16.84,0,0,1,322.64,920.28ZM319.9,893a7.69,7.69,0,1,1,7.69-7.69A7.69,7.69,0,0,1,319.9,893Z" class="cls-3"/><path d="M341.1,821.46a6,6,0,0,0,8.52,0l2.28-2.28a6,6,0,0,0,0-8.52h0a6,6,0,0,0-8.52,0l-2.28,2.28a6,6,0,0,0,0,8.52Z" class="cls-3"/><path d="M440.28,891.44v16.89h-9.21V872.18a6.82,6.82,0,0,1,7-6.72h4.61a13.54,13.54,0,0,1,10.11,4,12.55,12.55,0,0,1,3.84,9,12.7,12.7,0,0,1-3.84,9.08,13.49,13.49,0,0,1-10.11,3.9Zm0-17.21v8.44h2.43c6.4.51,6.4-9,0-8.44Z" class="cls-3"/><path d="M465.29,911.14c0,3.58,2,5.63,4.86,5.63s4.41-1.92,4.41-5.82v-3.13a10,10,0,0,1-4.67,1.09c-7,0-11.58-4.73-11.58-12.73V880.75h8.19v15.42c0,3.39,1.34,5.12,4,5.12s4-2,4-5.12V880.75h8.19v30.19c0,8.44-5.18,13.43-12.6,13.43a13,13,0,0,1-9.08-3.65,12.49,12.49,0,0,1-4-9.59Z" class="cls-3"/><path d="M486.27,908.32V870.26a4.61,4.61,0,0,1,4.67-4.8h14.58v6.4H492.86v11.07h11.51v6.4H492.86v19Z"/><path d="M523.37,881.07h6.14v14.71c0,4.29-1.15,7.55-3.45,9.66a12.17,12.17,0,0,1-16.38.06c-2.24-2.11-3.39-5.37-3.39-9.72V881.07h6.14v14.71c0,4.61,2.11,7,5.44,7s5.5-2.43,5.5-7Z"/><path d="M538.46,908.32h-6.14V893.61c0-4.35,1.15-7.55,3.39-9.66a12.08,12.08,0,0,1,16.38,0c2.3,2.11,3.45,5.37,3.45,9.66v14.71H549.4V893.61c0-4.54-2.17-7-5.5-7s-5.44,2.37-5.44,7Z"/><path d="M576.77,881.07V887h-3.13c-6.08,0-9.59,2.88-9.59,7.74s3.52,7.74,9.59,7.74h3.13v5.88h-3.13c-5,0-8.89-1.28-11.64-3.84a12.94,12.94,0,0,1-4.09-9.79A12.71,12.71,0,0,1,562,885c2.75-2.62,6.65-3.9,11.64-3.9Z"/><path d="M600.31,884.46c2.62,2.49,3.9,5.18,3.9,8.19,0,2.56-1.79,4.67-5.44,4.67H583.23a8,8,0,0,0,13.43,3.07l.58-.83h6.59a10,10,0,0,1-1.73,3.2,16.64,16.64,0,0,1-2.43,2.75,14.5,14.5,0,0,1-9,3.13,13.76,13.76,0,0,1-13.94-13.94,14,14,0,0,1,14-13.94A13.23,13.23,0,0,1,600.31,884.46Zm-2.17,7.36c-.51-2.75-3.58-5.25-7.36-5.25a7.38,7.38,0,0,0-7.48,5.25Z"/><path d="M612.4,865.47v17.78a6.63,6.63,0,0,1,.9-.64,11.53,11.53,0,0,1,2.69-1.15,13.67,13.67,0,0,1,4.29-.7,13.94,13.94,0,1,1,0,27.89,14.26,14.26,0,0,1-9.85-3.77c-2.75-2.49-4.16-5.95-4.16-10.36v-29Zm7.87,21.17a8.06,8.06,0,1,0,7.87,8.06A7.79,7.79,0,0,0,620.27,886.64Z"/><path d="M636.83,908.32V865.47H643v42.86Z"/><path d="M669.07,884.46c2.62,2.49,3.9,5.18,3.9,8.19,0,2.56-1.79,4.67-5.44,4.67H652a8,8,0,0,0,13.43,3.07l.58-.83h6.59a10.06,10.06,0,0,1-1.73,3.2,16.64,16.64,0,0,1-2.43,2.75,14.5,14.5,0,0,1-9,3.13,13.76,13.76,0,0,1-13.94-13.94,14,14,0,0,1,14-13.94A13.23,13.23,0,0,1,669.07,884.46Zm-2.17,7.36c-.51-2.75-3.58-5.25-7.36-5.25a7.38,7.38,0,0,0-7.48,5.25Z"/><path d="M673.79,536.77a6,6,0,0,0-8.52,0l-6.37,6.37a6,6,0,0,0,8.52,8.52l6.37-6.37A6,6,0,0,0,673.79,536.77Z" class="cls-4"/><path d="M665,520.27a6,6,0,0,0-.5-9,6.13,6.13,0,0,0-8.13.58l-39,39a6.12,6.12,0,0,1-8,.66,6,6,0,0,1-1.57-7.82,5.76,5.76,0,0,1,1-1.24l30.76-30.76a11,11,0,0,0,1.11-1.22,5.72,5.72,0,0,0-1.09-7,6,6,0,0,0-8.45,0l-44.74,44.74a6,6,0,0,1-8.45-8.45l19.28-19.57a6,6,0,1,0-8.45-8.45l-16.41,16.4a6,6,0,1,0-8.45-8.45L537.54,546a26.29,26.29,0,0,0-2.07,1.85A48.18,48.18,0,1,0,603.6,616l53.06-53.06a6,6,0,0,0-.5-9,6.13,6.13,0,0,0-8.13.58l-38.33,38.33a6.16,6.16,0,0,1-8.63.16,6,6,0,0,1,0-8.54ZM554.71,564.38a7.69,7.69,0,1,1-7.69,7.69A7.69,7.69,0,0,1,554.71,564.38ZM582.35,607a16.84,16.84,0,0,1-12,5H564A16.93,16.93,0,0,1,547,595l13.38-2.69a34.47,34.47,0,0,1,13.54,0L587.32,595A16.84,16.84,0,0,1,582.35,607Zm-2.73-27.25a7.69,7.69,0,1,1,7.69-7.69A7.69,7.69,0,0,1,579.62,579.73Z" class="cls-4"/><path d="M600.82,508.15a6,6,0,0,0,8.52,0l2.28-2.28a6,6,0,0,0,0-8.52h0a6,6,0,0,0-8.52,0l-2.28,2.28a6,6,0,0,0,0,8.52Z" class="cls-4"/><path d="M700,578.13V595h-9.21V558.88a6.82,6.82,0,0,1,7-6.72h4.61a13.54,13.54,0,0,1,10.11,4,12.55,12.55,0,0,1,3.84,9,12.7,12.7,0,0,1-3.84,9.08,13.49,13.49,0,0,1-10.11,3.9Zm0-17.21v8.44h2.43c6.4.51,6.4-9,0-8.44Z" class="cls-4"/><path d="M725,597.83c0,3.58,2,5.63,4.86,5.63s4.41-1.92,4.41-5.82v-3.13a10,10,0,0,1-4.67,1.09c-7,0-11.58-4.73-11.58-12.73V567.45h8.19v15.42c0,3.39,1.34,5.12,4,5.12s4-2,4-5.12V567.45h8.19v30.19c0,8.44-5.18,13.43-12.6,13.43a13,13,0,0,1-9.08-3.65,12.49,12.49,0,0,1-4-9.59Z" class="cls-4"/><path d="M746,595V557a4.61,4.61,0,0,1,4.67-4.8h14.58v6.4H752.58v11.07h11.51V576H752.58v19Z"/><path d="M783.09,567.77h6.14v14.71c0,4.29-1.15,7.55-3.45,9.66a12.17,12.17,0,0,1-16.38.06c-2.24-2.11-3.39-5.37-3.39-9.72V567.77h6.14v14.71c0,4.61,2.11,7,5.44,7s5.5-2.43,5.5-7Z"/><path d="M798.18,595H792V580.31c0-4.35,1.15-7.55,3.39-9.66a12.08,12.08,0,0,1,16.38,0c2.3,2.11,3.45,5.37,3.45,9.66V595h-6.14V580.31c0-4.54-2.17-7-5.5-7s-5.44,2.37-5.44,7Z"/><path d="M836.49,567.77v5.88h-3.13c-6.08,0-9.59,2.88-9.59,7.74s3.52,7.74,9.59,7.74h3.13V595h-3.13c-5,0-8.89-1.28-11.64-3.84a12.94,12.94,0,0,1-4.09-9.79,12.71,12.71,0,0,1,4.09-9.72c2.75-2.62,6.65-3.9,11.64-3.9Z"/><path d="M860,571.16c2.62,2.49,3.9,5.18,3.9,8.19,0,2.56-1.79,4.67-5.44,4.67H843a8,8,0,0,0,13.43,3.07l.58-.83h6.59a10,10,0,0,1-1.73,3.2,16.64,16.64,0,0,1-2.43,2.75,14.5,14.5,0,0,1-9,3.13,13.76,13.76,0,0,1-13.94-13.94,14,14,0,0,1,14-13.94A13.23,13.23,0,0,1,860,571.16Zm-2.17,7.36c-.51-2.75-3.58-5.25-7.36-5.25a7.38,7.38,0,0,0-7.48,5.25Z"/><path d="M872.12,552.16v17.78a6.63,6.63,0,0,1,.9-.64,11.53,11.53,0,0,1,2.69-1.15,13.67,13.67,0,0,1,4.29-.7,13.94,13.94,0,1,1,0,27.89,14.26,14.26,0,0,1-9.85-3.77c-2.75-2.49-4.16-5.95-4.16-10.36v-29ZM880,573.34a8.06,8.06,0,1,0,7.87,8.06A7.79,7.79,0,0,0,880,573.34Z"/><path d="M896.55,595V552.16h6.14V595Z"/><path d="M928.79,571.16c2.62,2.49,3.9,5.18,3.9,8.19,0,2.56-1.79,4.67-5.44,4.67H911.71a8,8,0,0,0,13.43,3.07l.58-.83h6.59a10.06,10.06,0,0,1-1.73,3.2,16.64,16.64,0,0,1-2.43,2.75,14.5,14.5,0,0,1-9,3.13,13.76,13.76,0,0,1-13.94-13.94,14,14,0,0,1,14-13.94A13.23,13.23,0,0,1,928.79,571.16Zm-2.17,7.36c-.51-2.75-3.58-5.25-7.36-5.25a7.38,7.38,0,0,0-7.48,5.25Z"/><path d="M677.24,691.91a6,6,0,0,0-8.52,0l-6.37,6.37a6,6,0,0,0,8.52,8.52l6.37-6.37A6,6,0,0,0,677.24,691.91Z" class="cls-5"/><path d="M668.42,675.4a6,6,0,0,0-.5-9,6.13,6.13,0,0,0-8.13.58l-39,39a6.12,6.12,0,0,1-8,.66,6,6,0,0,1-1.57-7.82,5.76,5.76,0,0,1,1-1.24l30.76-30.76a11,11,0,0,0,1.11-1.22,5.72,5.72,0,0,0-1.09-7,6,6,0,0,0-8.45,0l-44.74,44.74a6,6,0,0,1-8.45-8.45l19.28-19.57a6,6,0,1,0-8.45-8.45l-16.41,16.4a6,6,0,1,0-8.45-8.45L541,701.14a26.3,26.3,0,0,0-2.07,1.85A48.18,48.18,0,1,0,607,771.13l53.06-53.06a6,6,0,0,0-.5-9,6.13,6.13,0,0,0-8.13.58L613.14,748a6.16,6.16,0,0,1-8.63.16,6,6,0,0,1,0-8.54ZM558.16,719.52a7.69,7.69,0,1,1-7.69,7.69A7.69,7.69,0,0,1,558.16,719.52Zm27.64,42.6a16.84,16.84,0,0,1-12,5H567.4a16.93,16.93,0,0,1-16.93-16.93l13.38-2.69a34.47,34.47,0,0,1,13.54,0l13.38,2.69A16.84,16.84,0,0,1,585.8,762.12Zm-2.73-27.25a7.69,7.69,0,1,1,7.69-7.69A7.69,7.69,0,0,1,583.07,734.87Z" class="cls-5"/><path d="M604.27,663.29a6,6,0,0,0,8.52,0l2.28-2.28a6,6,0,0,0,0-8.52h0a6,6,0,0,0-8.52,0l-2.28,2.28a6,6,0,0,0,0,8.52Z" class="cls-5"/><path d="M703.45,733.27v16.89h-9.21V714a6.82,6.82,0,0,1,7-6.72h4.61a13.54,13.54,0,0,1,10.11,4,12.55,12.55,0,0,1,3.84,9,12.7,12.7,0,0,1-3.84,9.08,13.49,13.49,0,0,1-10.11,3.9Zm0-17.21v8.44h2.43c6.4.51,6.4-9,0-8.44Z" class="cls-5"/><path d="M728.46,753c0,3.58,2,5.63,4.86,5.63s4.41-1.92,4.41-5.82v-3.13a10,10,0,0,1-4.67,1.09c-7,0-11.58-4.73-11.58-12.73V722.59h8.19V738c0,3.39,1.34,5.12,4,5.12s4-2,4-5.12V722.59h8.19v30.19c0,8.44-5.18,13.43-12.6,13.43a13,13,0,0,1-9.08-3.65,12.49,12.49,0,0,1-4-9.59Z" class="cls-5"/><path d="M749.44,750.16V712.1a4.61,4.61,0,0,1,4.67-4.8h14.58v6.4H756v11.07h11.51v6.4H756v19Z"/><path d="M786.54,722.91h6.14v14.71c0,4.29-1.15,7.55-3.45,9.66a12.17,12.17,0,0,1-16.38.06c-2.24-2.11-3.39-5.37-3.39-9.72V722.91h6.14v14.71c0,4.61,2.11,7,5.44,7s5.5-2.43,5.5-7Z"/><path d="M801.63,750.16h-6.14V735.44c0-4.35,1.15-7.55,3.39-9.66a12.08,12.08,0,0,1,16.38,0c2.3,2.11,3.45,5.37,3.45,9.66v14.71h-6.14V735.44c0-4.54-2.17-7-5.5-7s-5.44,2.37-5.44,7Z"/><path d="M839.94,722.91v5.88h-3.13c-6.08,0-9.59,2.88-9.59,7.74s3.52,7.74,9.59,7.74h3.13v5.88h-3.13c-5,0-8.89-1.28-11.64-3.84a12.94,12.94,0,0,1-4.09-9.79,12.71,12.71,0,0,1,4.09-9.72c2.75-2.62,6.65-3.9,11.64-3.9Z"/><path d="M863.48,726.3c2.62,2.49,3.9,5.18,3.9,8.19,0,2.56-1.79,4.67-5.44,4.67H846.4a8,8,0,0,0,13.43,3.07l.58-.83H867a10,10,0,0,1-1.73,3.2,16.64,16.64,0,0,1-2.43,2.75,14.5,14.5,0,0,1-9,3.13,13.76,13.76,0,0,1-13.94-13.94,14,14,0,0,1,14-13.94A13.23,13.23,0,0,1,863.48,726.3Zm-2.17,7.36c-.51-2.75-3.58-5.25-7.36-5.25a7.38,7.38,0,0,0-7.48,5.25Z"/><path d="M875.57,707.3v17.78a6.63,6.63,0,0,1,.9-.64,11.53,11.53,0,0,1,2.69-1.15,13.67,13.67,0,0,1,4.29-.7,13.94,13.94,0,1,1,0,27.89,14.26,14.26,0,0,1-9.85-3.77c-2.75-2.49-4.16-5.95-4.16-10.36v-29Zm7.87,21.17a8.06,8.06,0,1,0,7.87,8.06A7.79,7.79,0,0,0,883.43,728.47Z"/><path d="M900,750.16V707.3h6.14v42.86Z"/><path d="M932.24,726.3c2.62,2.49,3.9,5.18,3.9,8.19,0,2.56-1.79,4.67-5.44,4.67H915.16a8,8,0,0,0,13.43,3.07l.58-.83h6.59a10.06,10.06,0,0,1-1.73,3.2,16.64,16.64,0,0,1-2.43,2.75,14.5,14.5,0,0,1-9,3.13,13.76,13.76,0,0,1-13.94-13.94,14,14,0,0,1,14-13.94A13.23,13.23,0,0,1,932.24,726.3Zm-2.17,7.36c-.51-2.75-3.58-5.25-7.36-5.25a7.38,7.38,0,0,0-7.48,5.25Z"/><rect width="1000" height="27" class="cls-3"/></svg>